<?xml version="1.0" encoding="utf-8"?>
<svg width="793" zoomAndPan="magnify" viewBox="0 0 595.5 842.249979" height="1122" preserveAspectRatio="xMidYMid meet" version="1.0" xmlns="http://www.w3.org/2000/svg">
  <defs>
    <clipPath id="a9431cef3f">
      <path d="M 30 771.730469 L 33.957031 771.730469 L 33.957031 779.207031 L 30 779.207031 Z M 30 771.730469 " clip-rule="nonzero"/>
    </clipPath>
    <clipPath id="40a7de4fe2">
      <path d="M 31.46875 772.515625 L 31.914062 771.832031 L 32.996094 771.832031 L 33.871094 772.144531 L 31.097656 778.804688 C 30.996094 779.074219 30.699219 779.207031 30.429688 779.117188 L 30 778.746094 Z M 31.46875 772.515625 " clip-rule="nonzero"/>
    </clipPath>
    <clipPath id="79ac6c3b6d">
      <path d="M 45.253906 776.34375 L 62.597656 776.34375 L 62.597656 797.824219 L 45.253906 797.824219 Z M 45.253906 776.34375 " clip-rule="nonzero"/>
    </clipPath>
    <clipPath id="c3f08c7eed">
      <path d="M 57.957031 791.703125 L 49.5 791.703125 C 49.320312 791.703125 49.171875 791.804688 49.113281 791.953125 L 46.855469 797.460938 C 46.738281 797.742188 46.382812 797.816406 46.175781 797.609375 L 45.402344 796.835938 L 45.253906 796.539062 L 53.371094 776.714844 C 53.519531 776.371094 53.996094 776.371094 54.144531 776.714844 L 62.378906 796.523438 C 62.484375 796.777344 62.335938 797.058594 62.066406 797.089844 L 60.941406 797.265625 L 60.582031 797.191406 L 58.34375 791.953125 C 58.285156 791.804688 58.136719 791.703125 57.957031 791.703125 M 50.375 788.824219 L 50.523438 789.816406 L 56.457031 789.890625 C 56.964844 789.890625 57.320312 789.386719 57.15625 788.910156 L 54.527344 781.683594 C 54.292969 781.046875 53.417969 781.03125 53.164062 781.671875 Z M 50.375 788.824219 " clip-rule="nonzero"/>
    </clipPath>
    <clipPath id="8d636c8851">
      <path d="M 76.757812 776.820312 L 78.984375 776.820312 L 78.984375 797.347656 L 76.757812 797.347656 Z M 76.757812 776.820312 " clip-rule="nonzero"/>
    </clipPath>
    <clipPath id="733fc1d2cd">
      <path d="M 78.941406 796.152344 L 78.464844 797.207031 L 77.855469 797.207031 L 76.804688 796.730469 L 76.832031 777.960938 C 76.832031 777.382812 77.308594 776.90625 77.886719 776.90625 L 77.917969 776.90625 L 78.96875 777.382812 Z M 78.941406 796.152344 " clip-rule="nonzero"/>
    </clipPath>
    <clipPath id="8f351423fe">
      <path d="M 14.867188 775.550781 L 24 775.550781 L 24 797 L 14.867188 797 Z M 14.867188 775.550781 " clip-rule="nonzero"/>
    </clipPath>
    <clipPath id="8948b4d28e">
      <path d="M 23.054688 794.3125 C 21.4375 795.886719 17.445312 797.339844 15.207031 795.621094 L 14.953125 794.640625 L 20.769531 793.808594 C 21.421875 793.71875 21.914062 793.15625 21.898438 792.488281 L 21.925781 776.65625 C 21.941406 775.867188 22.386719 775.617188 23.261719 775.898438 L 23.976562 776.371094 L 23.574219 793.113281 C 23.558594 793.585938 23.394531 793.988281 23.054688 794.3125 " clip-rule="nonzero"/>
    </clipPath>
    <clipPath id="c65a7debc3">
      <path d="M 95.421875 776.121094 L 118 776.121094 L 118 797.972656 L 95.421875 797.972656 Z M 95.421875 776.121094 " clip-rule="nonzero"/>
    </clipPath>
    <clipPath id="da0ec43315">
      <path d="M 113.246094 784.351562 L 112.386719 783.769531 L 107.117188 797.304688 C 106.851562 797.972656 106.582031 797.972656 106.332031 797.304688 L 101.433594 784.898438 C 101.152344 784.203125 100.144531 784.277344 99.980469 785.019531 L 97.589844 796.519531 C 97.457031 797.15625 97.042969 797.394531 96.34375 797.261719 L 95.5 796.667969 L 99.785156 777.210938 C 100.007812 776.21875 100.292969 776.203125 100.648438 777.152344 L 106.183594 791.695312 C 106.375 792.199219 107.085938 792.199219 107.28125 791.695312 L 112.875 777.152344 C 113.214844 776.277344 113.484375 776.308594 113.675781 777.210938 L 117.847656 796.28125 C 117.964844 796.84375 117.742188 797.171875 117.179688 797.261719 L 116.496094 797.199219 L 115.8125 796.398438 C 114.96875 792.007812 114.136719 788.132812 113.246094 784.351562 " clip-rule="nonzero"/>
    </clipPath>
    <clipPath id="cd2937dc1c">
      <path d="M 136.832031 776.792969 L 149.464844 776.792969 L 149.464844 797.441406 L 136.832031 797.441406 Z M 136.832031 776.792969 " clip-rule="nonzero"/>
    </clipPath>
    <clipPath id="e84f6789a4">
      <path d="M 139.9375 795.40625 L 148.691406 795.421875 C 149.105469 795.421875 149.449219 795.761719 149.460938 796.175781 L 149.136719 796.949219 L 137.886719 797.363281 C 137.207031 797.394531 136.863281 797.066406 136.878906 796.371094 L 137.207031 777.613281 C 137.21875 777.082031 137.488281 776.828125 138.023438 776.84375 L 148.707031 777.347656 C 149.078125 777.363281 149.359375 777.675781 149.34375 778.042969 L 149.046875 778.699219 L 139.757812 778.710938 C 139.222656 778.726562 138.808594 779.144531 138.792969 779.675781 L 138.765625 785.195312 C 138.765625 785.703125 139.179688 786.117188 139.699219 786.132812 L 147.917969 786.144531 C 148.410156 786.144531 148.765625 786.636719 148.632812 787.109375 L 148.421875 787.585938 L 147.890625 787.941406 C 144.980469 787.972656 142.371094 787.988281 139.742188 788 L 138.957031 788.269531 L 139.222656 794.707031 C 139.238281 795.167969 139.476562 795.390625 139.9375 795.40625 " clip-rule="nonzero"/>
    </clipPath>
    <clipPath id="689e28389d">
      <path d="M 173.28125 776.820312 L 183 776.820312 L 183 797.324219 L 173.28125 797.324219 Z M 173.28125 776.820312 " clip-rule="nonzero"/>
    </clipPath>
    <clipPath id="5acc41b02d">
      <path d="M 176.574219 795.035156 L 182.199219 795.4375 C 182.660156 795.464844 183.015625 795.851562 183 796.3125 L 182.613281 797.144531 L 174.421875 797.304688 C 173.667969 797.320312 173.28125 796.949219 173.28125 796.179688 L 173.28125 777.601562 C 173.28125 777.183594 173.621094 776.84375 174.039062 776.859375 L 174.527344 776.859375 L 175.359375 777.140625 L 175.566406 793.96875 C 175.582031 794.53125 176.011719 794.992188 176.574219 795.035156 " clip-rule="nonzero"/>
    </clipPath>
    <clipPath id="7470133321">
      <path d="M 206.570312 776.359375 L 224.160156 776.359375 L 224.160156 797.316406 L 206.570312 797.316406 Z M 206.570312 776.359375 " clip-rule="nonzero"/>
    </clipPath>
    <clipPath id="3a7a876e22">
      <path d="M 219.238281 791.71875 L 211.878906 791.703125 C 211.34375 791.691406 210.988281 791.941406 210.792969 792.445312 L 209.296875 796.5 C 209.101562 797.015625 208.730469 797.269531 208.183594 797.269531 L 207.46875 797.269531 L 206.625 796.972656 L 215.144531 776.792969 C 215.304688 776.40625 215.839844 776.40625 216.003906 776.792969 L 223.957031 796.082031 C 224.136719 796.527344 223.941406 797.03125 223.496094 797.226562 L 222.546875 797.238281 L 220.085938 792.253906 C 219.90625 791.898438 219.625 791.71875 219.238281 791.71875 M 212.054688 789.09375 L 212.175781 789.851562 L 218.496094 789.863281 C 218.882812 789.863281 219.148438 789.480469 219.015625 789.109375 L 216.078125 781.644531 C 215.882812 781.183594 215.230469 781.183594 215.054688 781.644531 Z M 212.054688 789.09375 " clip-rule="nonzero"/>
    </clipPath>
    <clipPath id="c50ce856f3">
      <path d="M 293.148438 777 L 307 777 L 307 797.683594 L 293.148438 797.683594 Z M 293.148438 777 " clip-rule="nonzero"/>
    </clipPath>
    <clipPath id="2bdce73aad">
      <path d="M 303.230469 786.472656 C 304.667969 787.511719 305.527344 788.046875 305.960938 789.886719 C 307.652344 797.144531 299.222656 797.675781 294.089844 797.097656 L 293.242188 796.726562 L 293.199219 777.957031 C 293.183594 777.363281 293.480469 777.082031 294.089844 777.09375 C 297.558594 777.214844 304.074219 776.308594 304.640625 781.308594 C 304.800781 782.792969 304.296875 784.113281 303.140625 785.257812 L 302.722656 786.101562 M 294.949219 779.320312 L 294.976562 784.988281 C 294.976562 785.316406 295.261719 785.582031 295.585938 785.582031 L 298.867188 785.554688 C 301.046875 785.539062 302.8125 784.160156 302.796875 782.480469 L 302.796875 781.710938 C 302.785156 780.035156 301.003906 778.683594 298.808594 778.699219 L 295.527344 778.726562 C 295.199219 778.726562 294.949219 778.996094 294.949219 779.320312 M 294.964844 787.660156 L 294.964844 794.960938 C 294.964844 795.199219 295.15625 795.390625 295.394531 795.390625 L 299.84375 795.390625 C 302.277344 795.390625 304.253906 793.730469 304.253906 791.667969 L 304.253906 790.957031 C 304.253906 788.894531 302.277344 787.230469 299.84375 787.230469 L 295.394531 787.230469 C 295.15625 787.230469 294.964844 787.421875 294.964844 787.660156 " clip-rule="nonzero"/>
    </clipPath>
    <clipPath id="022cbd2757">
      <path d="M 159.183594 450.019531 L 346.910156 450.019531 L 346.910156 741 L 159.183594 741 Z M 159.183594 450.019531 " clip-rule="nonzero"/>
    </clipPath>
    <clipPath id="ed70b27c19">
      <path d="M 262.394531 606.488281 L 262.703125 450.761719 C 262.703125 450.273438 262.957031 450.019531 263.460938 450.019531 L 346.144531 450.019531 C 346.5625 450.019531 346.902344 450.359375 346.902344 450.777344 L 346.886719 573.558594 C 346.875 604.15625 342.539062 637.78125 327.894531 665.148438 C 293.910156 728.675781 226.109375 740.945312 160.609375 740.488281 L 159.183594 739.996094 L 159.183594 733.824219 C 159.183594 733.273438 159.453125 732.992188 160 733.007812 C 178.296875 733.347656 193.835938 731.777344 210.277344 724.445312 C 254.691406 704.648438 262.199219 648.496094 262.394531 606.488281 " clip-rule="nonzero"/>
    </clipPath>
    <clipPath id="e624b8701e">
      <path d="M 331.335938 776.652344 L 352.023438 776.652344 L 352.023438 797.335938 L 331.335938 797.335938 Z M 331.335938 776.652344 " clip-rule="nonzero"/>
    </clipPath>
    <clipPath id="4237aba987">
      <path d="M 352.023438 786.992188 C 352.023438 792.707031 347.394531 797.335938 341.679688 797.335938 C 335.964844 797.335938 331.335938 792.707031 331.335938 786.992188 C 331.335938 781.28125 335.964844 776.652344 341.679688 776.652344 C 347.394531 776.652344 352.023438 781.28125 352.023438 786.992188 M 349.695312 787.066406 C 349.695312 782.601562 346.074219 778.980469 341.605469 778.980469 C 337.140625 778.980469 333.519531 782.601562 333.519531 787.066406 C 333.519531 791.535156 337.140625 795.15625 341.605469 795.15625 C 346.074219 795.15625 349.695312 791.535156 349.695312 787.066406 " clip-rule="nonzero"/>
    </clipPath>
    <clipPath id="284bc7c76b">
      <path d="M 378 776.859375 L 394 776.859375 L 394 798 L 378 798 Z M 378 776.859375 " clip-rule="nonzero"/>
    </clipPath>
    <clipPath id="13722431b8">
      <path d="M 382.054688 796.609375 C 376.890625 794.886719 378.390625 781.949219 378.480469 777.480469 L 378.6875 776.875 L 379.605469 776.859375 L 380.230469 777.050781 C 380.394531 780.894531 380.542969 784.324219 380.691406 787.75 C 380.792969 790.347656 380.113281 793.476562 383.125 794.753906 C 393.972656 799.308594 391.449219 782.496094 391.433594 777.585938 L 391.761719 776.859375 L 392.886719 776.859375 L 393.453125 777.097656 C 393.941406 786.371094 395.960938 801.253906 382.054688 796.609375 " clip-rule="nonzero"/>
    </clipPath>
    <clipPath id="0a0a04c297">
      <path d="M 418.5 776.785156 L 430.925781 776.785156 L 430.925781 797.285156 L 418.5 797.285156 Z M 418.5 776.785156 " clip-rule="nonzero"/>
    </clipPath>
    <clipPath id="be178b3d48">
      <path d="M 419.421875 778.652344 L 418.53125 778.222656 L 418.949219 776.828125 L 430.046875 776.785156 C 430.523438 776.785156 430.910156 777.15625 430.921875 777.613281 L 430.613281 778.492188 L 426.679688 778.9375 C 426.25 778.980469 425.921875 779.351562 425.921875 779.78125 L 425.921875 796.519531 C 425.921875 796.9375 425.582031 797.277344 425.164062 797.261719 L 424.765625 797.261719 L 423.726562 796.964844 C 423.695312 791.148438 423.609375 786.042969 423.445312 780.9375 C 423.398438 779.515625 422.0625 778.757812 419.421875 778.652344 " clip-rule="nonzero"/>
    </clipPath>
    <clipPath id="a34dfe42c3">
      <path d="M 456.714844 776.84375 L 458.941406 776.84375 L 458.941406 797.269531 L 456.714844 797.269531 Z M 456.714844 776.84375 " clip-rule="nonzero"/>
    </clipPath>
    <clipPath id="b90ebf0c98">
      <path d="M 458.941406 796.417969 L 458.554688 797.261719 L 457.5625 797.261719 L 456.714844 796.878906 L 456.714844 777.691406 C 456.714844 777.230469 457.101562 776.84375 457.5625 776.84375 L 458.09375 776.84375 L 458.941406 777.230469 Z M 458.941406 796.417969 " clip-rule="nonzero"/>
    </clipPath>
    <clipPath id="d2496fad34">
      <path d="M 189 43.398438 L 410 43.398438 L 410 293.574219 L 189 293.574219 Z M 189 43.398438 " clip-rule="nonzero"/>
    </clipPath>
    <clipPath id="2783307a9b">
      <path d="M 256.792969 101.292969 C 256.835938 55.585938 228.242188 50.273438 190.089844 50.882812 L 189.226562 50.617188 L 189.226562 44.351562 C 189.226562 43.730469 189.539062 43.417969 190.164062 43.417969 L 408.109375 43.417969 C 408.851562 43.417969 409.222656 43.789062 409.222656 44.53125 L 409.222656 50.050781 C 409.222656 50.675781 408.910156 50.972656 408.289062 50.957031 C 371.398438 49.546875 341.347656 55.644531 341.226562 100.28125 L 340.917969 292.734375 C 340.917969 293.226562 340.679688 293.460938 340.191406 293.460938 L 257.503906 293.460938 C 257.015625 293.460938 256.761719 293.210938 256.761719 292.707031 L 256.792969 101.292969 " clip-rule="nonzero"/>
    </clipPath>
    <clipPath id="24c297af61">
      <path d="M 105 305 L 182 305 L 182 383 L 105 383 Z M 105 305 " clip-rule="nonzero"/>
    </clipPath>
    <clipPath id="9ad1a62121">
      <path d="M 122.226562 333.988281 C 103.203125 342.507812 100.769531 328.304688 113.578125 318.378906 C 125.789062 308.925781 140.007812 304.726562 156.226562 305.765625 C 165.382812 306.34375 176.527344 309.058594 180.371094 317.84375 C 183.855469 325.8125 180.28125 336.703125 172.816406 341.246094 C 166.035156 345.386719 158.808594 347.699219 151.136719 348.21875 L 149.371094 349.214844 L 149.59375 350.800781 L 149.902344 351.542969 C 157.441406 353.917969 168.839844 359.675781 169.625 367.453125 C 170.472656 375.730469 161.195312 381.550781 153.96875 382.203125 C 139.398438 383.507812 124.808594 381.699219 110.222656 376.785156 L 109.527344 376.296875 L 109.601562 374.542969 C 110.550781 373.996094 111.070312 373.980469 111.738281 374.175781 C 125.226562 377.988281 140.316406 380.746094 154.445312 378.566406 C 164.015625 377.082031 172.089844 367.925781 161.019531 360.683594 C 153.613281 355.816406 145.246094 352.566406 135.910156 350.933594 L 134.398438 351.246094 L 126.726562 373.136719 C 126.53125 373.683594 126.070312 374.085938 125.523438 374.21875 L 123.164062 373.964844 C 126.324219 365.402344 128.550781 358.578125 130.507812 351.738281 C 130.835938 350.59375 130.121094 349.4375 128.964844 349.199219 L 122.820312 347.953125 C 122.050781 347.789062 121.515625 347.0625 121.621094 346.277344 L 122.421875 344.925781 L 131.25 345.488281 C 131.964844 345.535156 132.617188 345.074219 132.824219 344.390625 L 139.191406 322.816406 C 139.339844 322.296875 139.679688 322.027344 140.230469 322.027344 L 141.03125 322.027344 L 142.425781 322.800781 L 136.652344 342.890625 C 136.238281 344.316406 137.320312 345.742188 138.804688 345.742188 C 151.089844 345.785156 172.609375 344.078125 177.460938 329.90625 C 181.914062 316.878906 171.347656 311.210938 160.246094 309.519531 C 143.476562 306.964844 122.050781 311.566406 110.816406 325.960938 C 109.453125 327.710938 108.753906 329.683594 108.738281 331.882812 L 109.082031 332.921875 C 114.839844 334.863281 122.585938 330.605469 126.917969 327.710938 L 128.253906 327.386719 C 129.617188 328.601562 129.574219 329.460938 128.640625 330.425781 C 127.824219 331.242188 125.6875 332.429688 122.226562 333.988281 " clip-rule="nonzero"/>
    </clipPath>
    <clipPath id="342cbfe848">
      <path d="M 172 326 L 488.996094 326 L 488.996094 412 L 172 412 Z M 172 326 " clip-rule="nonzero"/>
    </clipPath>
    <clipPath id="d883f6a801">
      <path d="M 214.664062 371.621094 C 206.234375 377.542969 196.914062 379.546875 186.691406 377.644531 L 185.875 377.75 C 176.628906 391.417969 163.777344 368.816406 180.382812 364.277344 L 181.777344 364.453125 L 181.988281 366.515625 C 177.773438 368.550781 175.785156 371.398438 175.382812 375.359375 L 175.441406 376.207031 C 176.984375 378.152344 178.515625 378.773438 180.339844 378.460938 C 181.925781 378.179688 182.699219 376.339844 181.765625 375.019531 C 179.417969 371.726562 179.9375 368.816406 183.320312 366.292969 C 184.96875 365.0625 187.328125 366.21875 187.34375 368.28125 L 187.386719 372.628906 C 187.402344 373.804688 188.292969 374.78125 189.464844 374.886719 C 200.433594 375.894531 209.808594 372.660156 217.601562 365.167969 C 219.070312 363.757812 221.445312 365.316406 220.730469 367.230469 L 217.585938 375.65625 C 217.097656 376.964844 218.582031 378.136719 219.738281 377.347656 C 224.234375 374.292969 228.152344 370.417969 231.503906 365.714844 L 233.464844 364.335938 C 234.472656 366.203125 234.503906 366.574219 234.398438 366.917969 C 233.375 370.257812 232.410156 374.632812 234.753906 377.585938 C 242.027344 386.714844 262.535156 371.886719 268.617188 365.582031 L 268.988281 365.003906 L 268.988281 355.03125 C 268.988281 354.15625 268.25 353.472656 267.371094 353.53125 L 250.8125 354.734375 C 249.996094 354.792969 249.386719 354.421875 248.957031 353.636719 L 249.089844 351.648438 L 267.582031 350.265625 C 268.722656 350.179688 269.628906 349.304688 269.761719 348.175781 C 270.355469 343.203125 273.203125 328.097656 279.035156 326.140625 L 279.984375 326.019531 C 286.175781 329.253906 280.714844 343.664062 279.007812 348.25 L 279.273438 349.585938 C 286.292969 349.007812 293.074219 349.332031 299.367188 348.574219 L 301.28125 348.976562 C 301.679688 350.921875 301.160156 351.601562 300.433594 351.632812 L 278.292969 352.761719 C 277.804688 352.789062 277.375 353.117188 277.210938 353.578125 C 275.652344 358.207031 272.449219 363.621094 273.101562 368.195312 C 276.515625 392.21875 302.542969 372.925781 309.710938 364.871094 L 312.632812 364.808594 C 310.601562 370.804688 308.316406 377.082031 315.082031 378.894531 C 328.289062 382.453125 341.289062 371.546875 350.28125 362.851562 C 351.660156 361.53125 352.964844 360.832031 354.199219 360.789062 L 356.320312 362.703125 C 350.148438 366.710938 346.453125 370.984375 343.957031 376.339844 L 343.882812 377.558594 L 345.5625 378.195312 C 349.332031 374.308594 351.75 370.300781 353.25 365.714844 C 353.738281 364.230469 355.84375 364.230469 356.304688 365.730469 L 357.253906 368.773438 C 357.714844 370.285156 359.644531 370.746094 360.742188 369.601562 L 363.949219 367.675781 C 364.46875 367.527344 365.03125 367.601562 365.492188 367.898438 C 373.355469 372.925781 380.300781 372.007812 386.339844 365.105469 L 387.007812 364.648438 L 388.699219 365.210938 C 388.9375 366.324219 388.878906 366.695312 388.683594 367.109375 C 387.542969 369.601562 386.398438 372.511719 385.273438 375.820312 L 386.308594 378.226562 C 392.113281 374.144531 396 370.09375 399.074219 365.269531 L 400.363281 364.320312 C 401.847656 364.945312 402.246094 365.746094 402.070312 366.53125 C 400.972656 371.28125 399.296875 378.136719 405.914062 379.886719 C 419.105469 383.359375 435.074219 365.65625 445.296875 360.714844 C 451.542969 357.703125 456.441406 365.136719 450.296875 369.023438 C 446.664062 371.339844 442.671875 372.511719 438.351562 372.527344 L 437.59375 372.867188 C 437.667969 375.0625 438.367188 376.296875 439.71875 376.992188 C 454.246094 384.53125 473.550781 376.3125 485.691406 367.035156 L 486.460938 366.753906 L 487.945312 367.527344 L 488.582031 368.578125 C 480.675781 375.0625 472.335938 379.367188 463.074219 381.90625 C 455.210938 384.058594 436.394531 384.753906 434.019531 373.179688 L 433.679688 372.601562 C 425.054688 378.832031 403.226562 392.292969 397.617188 375.65625 L 395.984375 374.410156 C 392.929688 377.898438 390.019531 379.769531 386.59375 380.808594 L 385.257812 380.925781 C 381.933594 378.894531 381.324219 376.445312 382.851562 373.210938 L 383.046875 372.082031 C 376.425781 375.183594 370.863281 374.914062 365.445312 371.695312 L 364.585938 371.488281 C 360.089844 374.605469 357.640625 377.199219 356.882812 379.53125 C 353.589844 389.667969 349.910156 399.683594 345.84375 409.566406 L 344.773438 411.375 C 342.949219 412.355469 341.777344 411.480469 342 410.367188 C 344.328125 398.867188 348.171875 388.078125 353.53125 377.988281 C 353.886719 377.304688 354.0625 375.941406 354.050781 373.878906 L 353.828125 373.121094 C 351.421875 376.089844 349.539062 380.523438 346.109375 380.96875 C 342.59375 381.429688 339.820312 379.351562 341.066406 375.507812 L 341.125 374.558594 C 334.445312 379.886719 328.066406 382.617188 321.34375 383.269531 C 316.9375 383.6875 306.148438 380.140625 307.230469 373.847656 L 306.238281 372.304688 C 296.144531 382.410156 274.152344 390.703125 270.238281 370.09375 L 269.777344 369.304688 C 260.738281 376.992188 244.28125 388.195312 234.191406 381.59375 C 231.609375 379.902344 230.792969 377.46875 229.339844 374.753906 L 228.507812 374.261719 C 225.453125 377.988281 221.992188 380.066406 217.808594 380.894531 L 216.132812 380.703125 C 214.128906 377.527344 214.011719 374.914062 215.300781 372.171875 L 215.566406 370.984375 M 273.710938 349.972656 C 274.613281 350.222656 276.632812 345.859375 278.191406 340.234375 C 279.75 334.613281 280.296875 329.832031 279.390625 329.582031 C 278.488281 329.328125 276.46875 333.691406 274.910156 339.316406 C 273.351562 344.941406 272.804688 349.71875 273.710938 349.972656 M 272.449219 353.191406 C 271.914062 354.421875 271.765625 355.714844 272.003906 357.078125 L 272.449219 357.96875 C 273.53125 356.011719 273.8125 354.734375 273.679688 353.382812 L 272.714844 352.582031 M 439.925781 368.726562 L 439.644531 369.648438 C 443.753906 368.933594 446.765625 367.628906 449.421875 365.597656 L 449.75 363.265625 C 444.867188 363.980469 442.003906 365.746094 439.925781 368.726562 " clip-rule="nonzero"/>
    </clipPath>
    <clipPath id="e2891d18f5">
      <path d="M 307 356 L 314 356 L 314 362 L 307 362 Z M 307 356 " clip-rule="nonzero"/>
    </clipPath>
    <clipPath id="9797fc5101">
      <path d="M 313.257812 356.394531 C 313.820312 357.136719 312.929688 358.769531 311.238281 360.03125 C 309.546875 361.292969 307.734375 361.707031 307.1875 360.964844 C 306.636719 360.226562 307.511719 358.59375 309.203125 357.332031 C 310.898438 356.070312 312.707031 355.652344 313.257812 356.394531 " clip-rule="nonzero"/>
    </clipPath>
    <clipPath id="1e52fc3bc6">
      <path d="M 485 776 L 507 776 L 507 798 L 485 798 Z M 485 776 " clip-rule="nonzero"/>
    </clipPath>
    <clipPath id="14dd851b25">
      <path d="M 503.445312 795.339844 L 506.234375 795.609375 C 506.679688 795.652344 507.007812 796.023438 506.976562 796.46875 L 506.605469 797.253906 C 501.441406 797.269531 493.976562 798.324219 490.222656 795.710938 C 477.667969 786.972656 493 769.148438 503.371094 779.980469 C 507.601562 784.417969 507.558594 789.347656 503.207031 794.761719 L 503.015625 795.296875 M 504.011719 787.132812 C 504.011719 782.683594 500.402344 779.078125 495.953125 779.078125 C 491.5 779.078125 487.894531 782.683594 487.894531 787.132812 C 487.894531 791.585938 491.5 795.191406 495.953125 795.191406 C 500.402344 795.191406 504.011719 791.585938 504.011719 787.132812 " clip-rule="nonzero"/>
    </clipPath>
    <clipPath id="985440760a">
      <path d="M 532 776.636719 L 548 776.636719 L 548 798 L 532 798 Z M 532 776.636719 " clip-rule="nonzero"/>
    </clipPath>
    <clipPath id="21e1a204a8">
      <path d="M 536.011719 796.601562 C 530.746094 794.761719 532.347656 782.269531 532.421875 777.699219 L 532.644531 776.957031 L 533.996094 776.867188 C 537.46875 780.976562 529.214844 797.105469 541.3125 794.941406 C 547.277344 793.871094 545.242188 784.464844 544.902344 778.722656 L 545.511719 776.660156 L 547.601562 777.265625 C 547.585938 784.96875 550.378906 801.648438 536.011719 796.601562 " clip-rule="nonzero"/>
    </clipPath>
    <clipPath id="6db9e52644">
      <path d="M 574.59375 776.792969 L 587.226562 776.792969 L 587.226562 797.441406 L 574.59375 797.441406 Z M 574.59375 776.792969 " clip-rule="nonzero"/>
    </clipPath>
    <clipPath id="ce00ef3d81">
      <path d="M 577.699219 795.40625 L 586.453125 795.421875 C 586.871094 795.421875 587.210938 795.761719 587.226562 796.179688 L 586.898438 796.949219 L 575.652344 797.363281 C 574.96875 797.394531 574.628906 797.070312 574.644531 796.371094 L 574.96875 777.613281 C 574.984375 777.082031 575.25 776.828125 575.785156 776.84375 L 586.46875 777.347656 C 586.839844 777.363281 587.121094 777.675781 587.109375 778.046875 L 586.8125 778.699219 L 577.523438 778.710938 C 576.988281 778.726562 576.570312 779.144531 576.558594 779.675781 L 576.527344 785.195312 C 576.527344 785.703125 576.941406 786.117188 577.460938 786.132812 L 585.683594 786.148438 C 586.171875 786.148438 586.527344 786.636719 586.394531 787.113281 L 586.1875 787.585938 L 585.652344 787.941406 C 582.746094 787.972656 580.132812 787.988281 577.507812 788 L 576.71875 788.269531 L 576.988281 794.710938 C 577.003906 795.167969 577.238281 795.390625 577.699219 795.40625 " clip-rule="nonzero"/>
    </clipPath>
  </defs>
  <g clip-path="url(#a9431cef3f)">
    <g clip-path="url(#40a7de4fe2)">
      <path d="M 7.546875 764.414062 L 86.460938 764.414062 L 86.460938 805.140625 L 7.546875 805.140625 Z M 7.546875 764.414062 " fill-opacity="1" fill-rule="nonzero" style="fill: rgb(242, 242, 242);"/>
    </g>
  </g>
  <g clip-path="url(#79ac6c3b6d)">
    <g clip-path="url(#c3f08c7eed)">
      <path d="M 7.546875 764.414062 L 86.460938 764.414062 L 86.460938 805.140625 L 7.546875 805.140625 Z M 7.546875 764.414062 " fill-opacity="1" fill-rule="nonzero" style="fill: rgb(242, 242, 242);"/>
    </g>
  </g>
  <g clip-path="url(#8d636c8851)">
    <g clip-path="url(#733fc1d2cd)">
      <path d="M 7.546875 764.414062 L 86.460938 764.414062 L 86.460938 805.140625 L 7.546875 805.140625 Z M 7.546875 764.414062 " fill-opacity="1" fill-rule="nonzero" style="fill: rgb(242, 242, 242);"/>
    </g>
  </g>
  <g clip-path="url(#8f351423fe)">
    <g clip-path="url(#8948b4d28e)">
      <path d="M 7.546875 764.414062 L 86.460938 764.414062 L 86.460938 805.140625 L 7.546875 805.140625 Z M 7.546875 764.414062 " fill-opacity="1" fill-rule="nonzero" style="fill: rgb(242, 242, 242);"/>
    </g>
  </g>
  <g clip-path="url(#c65a7debc3)">
    <g clip-path="url(#da0ec43315)">
      <path d="M 95.585938 776.457031 L 117.855469 776.457031 L 117.855469 797.808594 L 95.585938 797.808594 Z M 95.585938 776.457031 " fill-opacity="1" fill-rule="nonzero" style="fill: rgb(242, 242, 242);"/>
    </g>
  </g>
  <g clip-path="url(#cd2937dc1c)">
    <g clip-path="url(#e84f6789a4)">
      <path d="M 136.878906 776.84375 L 149.464844 776.84375 L 149.464844 797.390625 L 136.878906 797.390625 Z M 136.878906 776.84375 " fill-opacity="1" fill-rule="nonzero" style="fill: rgb(242, 242, 242);"/>
    </g>
  </g>
  <g clip-path="url(#689e28389d)">
    <g clip-path="url(#5acc41b02d)">
      <path d="M 173.28125 776.859375 L 183 776.859375 L 183 797.324219 L 173.28125 797.324219 Z M 173.28125 776.859375 " fill-opacity="1" fill-rule="nonzero" style="fill: rgb(242, 242, 242);"/>
    </g>
  </g>
  <g clip-path="url(#7470133321)">
    <g clip-path="url(#3a7a876e22)">
      <path d="M 206.773438 776.496094 L 224.023438 776.496094 L 224.023438 797.316406 L 206.773438 797.316406 Z M 206.773438 776.496094 " fill-opacity="1" fill-rule="nonzero" style="fill: rgb(242, 242, 242);"/>
    </g>
  </g>
  <g clip-path="url(#c50ce856f3)">
    <g clip-path="url(#2bdce73aad)">
      <path d="M 293.199219 777.09375 L 306.179688 777.09375 L 306.179688 797.28125 L 293.199219 797.28125 Z M 293.199219 777.09375 " fill-opacity="1" fill-rule="nonzero" style="fill: rgb(242, 242, 242);"/>
    </g>
  </g>
  <g clip-path="url(#022cbd2757)">
    <g clip-path="url(#ed70b27c19)">
      <path d="M 159.183594 450.019531 L 346.910156 450.019531 L 346.910156 740.40625 L 159.183594 740.40625 Z M 159.183594 450.019531 " fill-opacity="1" fill-rule="nonzero" style="fill: rgb(242, 242, 242);"/>
    </g>
  </g>
  <g clip-path="url(#e624b8701e)">
    <g clip-path="url(#4237aba987)">
      <path d="M 331.335938 776.652344 L 352.023438 776.652344 L 352.023438 797.335938 L 331.335938 797.335938 Z M 331.335938 776.652344 " fill-opacity="1" fill-rule="nonzero" style="fill: rgb(242, 242, 242);"/>
    </g>
  </g>
  <g clip-path="url(#284bc7c76b)">
    <g clip-path="url(#13722431b8)">
      <path d="M 378.210938 776.859375 L 393.847656 776.859375 L 393.847656 797.503906 L 378.210938 797.503906 Z M 378.210938 776.859375 " fill-opacity="1" fill-rule="nonzero" style="fill: rgb(242, 242, 242);"/>
    </g>
  </g>
  <g clip-path="url(#0a0a04c297)">
    <g clip-path="url(#be178b3d48)">
      <path d="M 418.546875 776.785156 L 430.925781 776.785156 L 430.925781 797.285156 L 418.546875 797.285156 Z M 418.546875 776.785156 " fill-opacity="1" fill-rule="nonzero" style="fill: rgb(242, 242, 242);"/>
    </g>
  </g>
  <g clip-path="url(#a34dfe42c3)">
    <g clip-path="url(#b90ebf0c98)">
      <path d="M 456.714844 776.84375 L 458.941406 776.84375 L 458.941406 797.261719 L 456.714844 797.261719 Z M 456.714844 776.84375 " fill-opacity="1" fill-rule="nonzero" style="fill: rgb(242, 242, 242);"/>
    </g>
  </g>
  <g clip-path="url(#d2496fad34)">
    <g clip-path="url(#2783307a9b)">
      <path d="M 98.1875 36 L 496.394531 36 L 496.394531 419.402344 L 98.1875 419.402344 Z M 98.1875 36 " fill-opacity="1" fill-rule="nonzero" style="fill: rgb(242, 242, 242);"/>
    </g>
  </g>
  <g clip-path="url(#24c297af61)">
    <g clip-path="url(#9ad1a62121)">
      <path d="M 98.1875 36 L 496.394531 36 L 496.394531 419.402344 L 98.1875 419.402344 Z M 98.1875 36 " fill-opacity="1" fill-rule="nonzero" style="fill: rgb(242, 242, 242);"/>
    </g>
  </g>
  <g clip-path="url(#342cbfe848)">
    <g clip-path="url(#d883f6a801)">
      <path d="M 98.1875 36 L 496.394531 36 L 496.394531 419.402344 L 98.1875 419.402344 Z M 98.1875 36 " fill-opacity="1" fill-rule="nonzero" style="fill: rgb(242, 242, 242);"/>
    </g>
  </g>
  <g clip-path="url(#e2891d18f5)">
    <g clip-path="url(#9797fc5101)">
      <path d="M 98.1875 36 L 496.394531 36 L 496.394531 419.402344 L 98.1875 419.402344 Z M 98.1875 36 " fill-opacity="1" fill-rule="nonzero" style="fill: rgb(242, 242, 242);"/>
    </g>
  </g>
  <g clip-path="url(#1e52fc3bc6)">
    <g clip-path="url(#14dd851b25)">
      <path d="M 485.503906 776.582031 L 506.964844 776.582031 L 506.964844 797.46875 L 485.503906 797.46875 Z M 485.503906 776.582031 " fill-opacity="1" fill-rule="nonzero" style="fill: rgb(242, 242, 242);"/>
    </g>
  </g>
  <g clip-path="url(#985440760a)">
    <g clip-path="url(#21e1a204a8)">
      <path d="M 532.140625 776.820312 L 547.816406 776.820312 L 547.816406 797.519531 L 532.140625 797.519531 Z M 532.140625 776.820312 " fill-opacity="1" fill-rule="nonzero" style="fill: rgb(242, 242, 242);"/>
    </g>
  </g>
  <g clip-path="url(#6db9e52644)">
    <g clip-path="url(#ce00ef3d81)">
      <path d="M 574.644531 776.84375 L 587.226562 776.84375 L 587.226562 797.390625 L 574.644531 797.390625 Z M 574.644531 776.84375 " fill-opacity="1" fill-rule="nonzero" style="fill: rgb(242, 242, 242);"/>
    </g>
  </g>
</svg>